<svg xmlns="http://www.w3.org/2000/svg" width="966.816" height="966.816" viewBox="0 0 966.816 966.816">
  <path d="M416.946 27.601c18.301-17.4 43.4-27.6 68.701-27.6 26.199-.1 52 10.7 70.6 29 .1.1.199.2.301.3l215.199 215.2c39.1 39.1 39.1 102.4 0 141.4-39.1 39.1-102.4 39.1-141.4 0l-44.4-44.4v283.901l44.4-44.4c39.1-39.1 102.4-39.1 141.4 0 39.1 39.1 39.1 102.4 0 141.4l-215.199 215.1c-11.102 11.1-24.701 19.4-39.602 24.4-13.898 4.6-28.799 5.899-43.299 4.199-13.3-1.6-26.3-6-37.899-12.699a96.17 96.17 0 01-20.601-15.9l-220.1-220.1c-19.5-19.5-29.3-45.101-29.3-70.7 0-25.601 9.8-51.2 29.3-70.7 39.1-39.1 102.399-39.1 141.399 0l49.301 49.3V341.4l-49.301 49.3c-39.1 39.1-102.399 39.1-141.399 0-19.5-19.5-29.3-45.1-29.3-70.7s9.8-51.2 29.3-70.7l220.1-220c.6-.599 1.199-1.099 1.799-1.699z"/>
</svg>
