<svg height="512" viewBox="0 0 512.002 512.002" width="512" xmlns="http://www.w3.org/2000/svg">
  <path d="M505.388 149.999l-18.652-18.652V56c0-16.542-13.458-29.999-30-29.999h-220c-16.542 0-30 13.457-30 29.999v150H55.266c-16.542 0-30 13.458-30 30v75.345L6.615 329.997C2.349 334.261 0 339.945 0 346s2.349 11.738 6.614 16.004l18.652 18.652v75.345c0 16.542 13.458 29.999 30 29.999h220c16.542 0 30-13.457 30-29.999v-150h151.469c16.542 0 30-13.458 30-30v-75.345l18.652-18.651c4.265-4.266 6.614-9.948 6.614-16.004s-2.348-11.739-6.613-16.002zM285.267 456.001c0 5.514-4.486 9.999-10 9.999h-220c-5.514 0-10-4.485-10-9.999v-79.487c0-2.652-1.054-5.195-2.929-7.071l-21.581-21.581c-.658-.657-.757-1.448-.757-1.862 0-.412.098-1.203.756-1.86l21.581-21.581a10.003 10.003 0 002.929-7.071V236c0-5.514 4.486-10 10-10h151.469v50.001c0 16.542 13.458 30 30 30h48.531v150zm205.979-288.138l-21.581 21.58a10.001 10.001 0 00-2.929 7.071v79.487c0 5.514-4.486 10-10 10h-220c-5.514 0-10-4.486-10-10V56c0-5.514 4.486-9.999 10-9.999h220c5.514 0 10 4.485 10 9.999v79.487a9.999 9.999 0 002.929 7.071l21.582 21.583c.657.656.755 1.447.755 1.859-.001.415-.099 1.206-.756 1.863z"/>
  <path d="M416.734 76.001H276.737c-5.523 0-10 4.478-10 10s4.477 10 10 10h139.997c5.523 0 10-4.478 10-10s-4.477-10-10-10zM416.734 116.001H276.737c-5.523 0-10 4.478-10 10s4.477 10 10 10h139.997c5.523 0 10-4.478 10-10s-4.477-10-10-10zM416.734 156.001H276.737c-5.523 0-10 4.478-10 10s4.477 10 10 10h139.997c5.523 0 10-4.478 10-10s-4.477-10-10-10zM416.734 196.001h-69.999c-5.523 0-10 4.478-10 10s4.477 10 10 10h69.999c5.523 0 10-4.478 10-10s-4.477-10-10-10zM416.734 236.001h-69.999c-5.523 0-10 4.478-10 10s4.477 10 10 10h69.999c5.523 0 10-4.478 10-10s-4.477-10-10-10zM95.268 276h69.999c5.523 0 10-4.478 10-10s-4.477-10-10-10H95.268c-5.523 0-10 4.478-10 10s4.477 10 10 10zM95.268 316h69.999c5.523 0 10-4.478 10-10s-4.477-10-10-10H95.268c-5.523 0-10 4.478-10 10s4.477 10 10 10zM95.268 336c-5.523 0-10 4.478-10 10s4.477 10 10 10h139.997c5.523 0 10-4.478 10-10s-4.477-10-10-10zM235.265 376H95.268c-5.523 0-10 4.478-10 10s4.477 10 10 10h139.997c5.523 0 10-4.478 10-10s-4.477-10-10-10zM235.265 416H95.268c-5.523 0-10 4.478-10 10s4.477 10 10 10h139.997c5.523 0 10-4.478 10-10s-4.477-10-10-10z"/>
</svg>
